<!--Made by Ulrik Palmstrøm-->
<svg xmlns="http://www.w3.org/2000/svg" viewBox="0 0 250.5 320">
  <defs>
    <style>
      .cls-1,
      .cls-3 {
        fill: #efb788;
      }
      .cls-1,
      .cls-10,
      .cls-2,
      .cls-6,
      .cls-7,
      .cls-8,
      .cls-9 {
        stroke: #000;
        stroke-miterlimit: 10;
      }
      .cls-2 {
        fill: #f8dcdc;
      }
      .cls-4 {
        fill: #3692b9;
      }
      .cls-5 {
        fill: #41b1d8;
      }
      .cls-6 {
        fill: #892525;
      }
      .cls-7 {
        fill: #d6ab99;
      }
      .cls-8 {
        fill: #451313;
      }
      .cls-9 {
        fill: #fff;
      }
    </style>
  </defs>
  <title>chef</title>
  <g id="Layer_2" data-name="Layer 2">
    <g id="Layer_1-2" data-name="Layer 1">
      <path
        class="cls-1"
        d="M201.13,224.7c9.8,0,17.74-8.66,17.74-19.35S210.93,186,201.13,186"
      />
      <path
        class="cls-1"
        d="M49.87,224.7c-9.8,0-17.74-8.66-17.74-19.35S40.07,186,49.87,186"
      />
      <path
        class="cls-2"
        d="M49.5,214.7c-5.18,0-9.37-4.57-9.37-10.22s4.19-10.22,9.37-10.22"
      />
      <path
        class="cls-3"
        d="M125.5,319.5A75.59,75.59,0,0,1,50,244V160a75.5,75.5,0,0,1,151,0v84A75.59,75.59,0,0,1,125.5,319.5Z"
      />
      <path
        d="M125.5,85a75.08,75.08,0,0,1,75,75v84a75,75,0,0,1-150,0V160a75.08,75.08,0,0,1,75-75m0-1h0a76,76,0,0,0-76,76v84a76,76,0,0,0,76,76h0a76,76,0,0,0,76-76V160a76,76,0,0,0-76-76Z"
      />
      <rect class="cls-4" x="50" y="66.5" width="151" height="76" rx="2.25" />
      <path
        d="M198.75,67a1.76,1.76,0,0,1,1.75,1.75v71.5a1.76,1.76,0,0,1-1.75,1.75H52.25a1.76,1.76,0,0,1-1.75-1.75V68.75A1.76,1.76,0,0,1,52.25,67h146.5m0-1H52.25a2.75,2.75,0,0,0-2.75,2.75v71.5A2.75,2.75,0,0,0,52.25,143h146.5a2.75,2.75,0,0,0,2.75-2.75V68.75A2.75,2.75,0,0,0,198.75,66Z"
      />
      <path
        class="cls-4"
        d="M49,97.5a48.5,48.5,0,0,1,0-97H201.5a48.5,48.5,0,0,1,0,97Z"
      />
      <path
        d="M201.5,1a48,48,0,0,1,0,96H49A48,48,0,0,1,49,1H201.5m0-1H49A49,49,0,0,0,0,49H0A49,49,0,0,0,49,98H201.5a49,49,0,0,0,49-49h0a49,49,0,0,0-49-49Z"
      />
      <path
        class="cls-5"
        d="M32.25,154.5a7.75,7.75,0,0,1,0-15.5h186.5a7.75,7.75,0,0,1,0,15.5Z"
      />
      <path
        d="M218.75,139.5a7.25,7.25,0,0,1,0,14.5H32.25a7.25,7.25,0,0,1,0-14.5h186.5m0-1H32.25a8.25,8.25,0,0,0,0,16.5h186.5a8.25,8.25,0,0,0,0-16.5Z"
      />
      <rect class="cls-6" x="105.5" y="222" width="40" height="80" rx="20" />
      <line class="cls-7" x1="148.5" y1="208" x2="147.5" y2="208" />
      <path class="cls-7" d="M148.5,207" />
      <path
        class="cls-8"
        d="M115.5,289a20,20,0,0,1,30-17.3V242a20,20,0,0,0-40,0v40a20,20,0,0,0,10,17.3Z"
      />
      <path class="cls-3" d="M157.5,242h-64V214h64Z" />
      <rect class="cls-9" x="105.5" y="242" width="40" height="26" />
      <path
        class="cls-10"
        d="M132.06,241.19c0,17-20.7,30.81-46.23,30.81s-46.22-13.8-46.22-30.81"
      />
      <path
        class="cls-10"
        d="M39.61,242.19C39.61,230.48,50,221,62.72,221s23.11,9.48,23.11,21.19"
      />
      <path
        class="cls-10"
        d="M119.06,241.19c0,17,20.69,30.81,46.22,30.81s46.22-13.8,46.22-30.81"
      />
      <path
        class="cls-10"
        d="M211.5,242.19c0-11.71-10.35-21.19-23.11-21.19s-23.11,9.48-23.11,21.19"
      />
      <rect class="cls-2" x="110.5" y="196" width="32" height="51" rx="16" />
      <circle class="cls-9" cx="93.5" cy="211" r="17" />
      <circle class="cls-10" cx="93" cy="210.5" r="5.5" />
      <rect class="cls-10" x="72.5" y="167" width="42" height="13" rx="6.5" />
      <rect class="cls-10" x="138.5" y="173" width="42" height="13" rx="6.5" />
      <path
        class="cls-2"
        d="M201.5,214.7c5.17,0,9.37-4.57,9.37-10.22s-4.2-10.22-9.37-10.22"
      />
      <rect class="cls-2" x="143.5" y="208" width="33" height="6" rx="3" />
    </g>
  </g>
</svg>
