
<!--Made by Ulrik Palmstrøm-->
<svg xmlns="http://www.w3.org/2000/svg" viewBox="0 0 626.41 483.47">
  <defs>
    <style>
      .cls-1 {
        fill: #fedaaa;
      }
      .cls-1,
      .cls-10,
      .cls-11,
      .cls-2,
      .cls-3,
      .cls-7,
      .cls-8 {
        stroke: #442b2e;
        stroke-miterlimit: 10;
      }
      .cls-2,
      .cls-3,
      .cls-7,
      .cls-8 {
        fill: #c44853;
      }
      .cls-2 {
        stroke-width: 1.41px;
      }
      .cls-3 {
        stroke-width: 0.51px;
      }
      .cls-4 {
        fill: #ffe0df;
      }
      .cls-5 {
        fill: #ffc0b7;
      }
      .cls-6 {
        fill: #f9848a;
      }
      .cls-7 {
        stroke-width: 1.34px;
      }
      .cls-8 {
        stroke-width: 0.48px;
      }
      .cls-9 {
        fill: #9dc12d;
      }
      .cls-10 {
        fill: none;
        stroke-width: 1.19px;
      }
      .cls-11 {
        fill: #ffd84c;
        stroke-width: 1.02px;
      }
      .cls-12 {
        fill: #fcb483;
      }

      #Layer_2 {
        opacity: 0.8;
      }
    </style>
  </defs>
  <title>Asset 2</title>
  <g id="Layer_2" data-name="Layer 2">
    <g id="Layer_1-2" data-name="Layer 1">
      <polygon
        class="cls-1"
        points="121.89 46.58 239.89 114.58 121.89 182.58 4.89 114.58 121.89 46.58"
      />
      <polygon
        class="cls-1"
        points="4.89 114.58 4.89 137.58 122.89 205.58 121.89 182.58 4.89 114.58"
      />
      <polygon
        class="cls-1"
        points="239.89 114.58 239.89 137.58 122.89 205.58 121.89 182.58 239.89 114.58"
      />
      <polygon
        class="cls-1"
        points="121.89 46.58 239.89 114.58 121.89 182.58 4.89 114.58 121.89 46.58"
      />
      <path
        class="cls-2"
        d="M129.5,118.5c16.31-9.48,43.11-9.48,59.56,0s16.45,25,0,34.47-43.25,9.48-59.56,0S113.19,128,129.5,118.5Z"
      />
      <path
        class="cls-3"
        d="M129.5,118.5c16.31-9.48,43.11-9.48,59.56,0s16.45,25,0,34.47-43.25,9.48-59.56,0S113.19,128,129.5,118.5Z"
      />
      <path
        class="cls-4"
        d="M130.46,134.66a8.9,8.9,0,0,1,8.07,0c2.23,1.28,2.23,3.38,0,4.67a9,9,0,0,1-8.07,0C128.25,138,128.25,135.94,130.46,134.66Z"
      />
      <path
        class="cls-4"
        d="M130.46,134.66a8.9,8.9,0,0,1,8.07,0c2.23,1.28,2.23,3.38,0,4.67a9,9,0,0,1-8.07,0C128.25,138,128.25,135.94,130.46,134.66Z"
      />
      <path
        class="cls-4"
        d="M147.7,121.25a4,4,0,0,1,3.65,0,1.11,1.11,0,0,1,0,2.11,4,4,0,0,1-3.65,0A1.12,1.12,0,0,1,147.7,121.25Z"
      />
      <path
        class="cls-4"
        d="M147.7,121.25a4,4,0,0,1,3.65,0,1.11,1.11,0,0,1,0,2.11,4,4,0,0,1-3.65,0A1.12,1.12,0,0,1,147.7,121.25Z"
      />
      <path
        class="cls-4"
        d="M167.28,148.16a11.78,11.78,0,0,1,10.66,0c2.94,1.69,2.94,4.47,0,6.17a11.84,11.84,0,0,1-10.66,0C164.36,152.63,164.36,149.85,167.28,148.16Z"
      />
      <path
        class="cls-4"
        d="M167.28,148.16a11.78,11.78,0,0,1,10.66,0c2.94,1.69,2.94,4.47,0,6.17a11.84,11.84,0,0,1-10.66,0C164.36,152.63,164.36,149.85,167.28,148.16Z"
      />
      <path
        class="cls-5"
        d="M160.15,138a9,9,0,0,1,8.07,0c2.22,1.29,2.22,3.39,0,4.67a8.9,8.9,0,0,1-8.07,0C157.94,141.34,157.94,139.24,160.15,138Z"
      />
      <path
        class="cls-5"
        d="M160.15,138a9,9,0,0,1,8.07,0c2.22,1.29,2.22,3.39,0,4.67a8.9,8.9,0,0,1-8.07,0C157.94,141.34,157.94,139.24,160.15,138Z"
      />
      <path
        class="cls-5"
        d="M186.82,139.77a10.53,10.53,0,0,1,9.5,0c2.62,1.51,2.62,4,0,5.5a10.53,10.53,0,0,1-9.5,0C184.22,143.76,184.22,141.28,186.82,139.77Z"
      />
      <path
        class="cls-5"
        d="M186.82,139.77a10.53,10.53,0,0,1,9.5,0c2.62,1.51,2.62,4,0,5.5a10.53,10.53,0,0,1-9.5,0C184.22,143.76,184.22,141.28,186.82,139.77Z"
      />
      <path
        class="cls-5"
        d="M162.57,118.61a13.11,13.11,0,0,1,11.83,0c3.26,1.89,3.26,5,0,6.85a13.11,13.11,0,0,1-11.83,0C159.33,123.58,159.33,120.5,162.57,118.61Z"
      />
      <path
        class="cls-5"
        d="M162.57,118.61a13.11,13.11,0,0,1,11.83,0c3.26,1.89,3.26,5,0,6.85a13.11,13.11,0,0,1-11.83,0C159.33,123.58,159.33,120.5,162.57,118.61Z"
      />
      <path
        class="cls-6"
        d="M144,128.49a10.51,10.51,0,0,1,9.49,0c2.62,1.51,2.62,4,0,5.49a10.51,10.51,0,0,1-9.49,0C141.35,132.47,141.35,130,144,128.49Z"
      />
      <path
        class="cls-6"
        d="M144,128.49a10.51,10.51,0,0,1,9.49,0c2.62,1.51,2.62,4,0,5.49a10.51,10.51,0,0,1-9.49,0C141.35,132.47,141.35,130,144,128.49Z"
      />
      <path
        class="cls-6"
        d="M146.32,145.83a14.36,14.36,0,0,1,13,0c3.59,2.07,3.59,5.46,0,7.52a14.36,14.36,0,0,1-13,0C142.76,151.29,142.76,147.9,146.32,145.83Z"
      />
      <path
        class="cls-6"
        d="M146.32,145.83a14.36,14.36,0,0,1,13,0c3.59,2.07,3.59,5.46,0,7.52a14.36,14.36,0,0,1-13,0C142.76,151.29,142.76,147.9,146.32,145.83Z"
      />
      <path
        class="cls-6"
        d="M180,124.52c4.16-2.41,11-2.41,15.18,0s4.19,6.37,0,8.78-11,2.42-15.18,0S175.81,126.94,180,124.52Z"
      />
      <path
        class="cls-6"
        d="M180,124.52c4.16-2.41,11-2.41,15.18,0s4.19,6.37,0,8.78-11,2.42-15.18,0S175.81,126.94,180,124.52Z"
      />
      <path
        class="cls-7"
        d="M105.76,119.54c-15.51-9-41-9-56.63,0s-15.65,23.76,0,32.78,41.12,9,56.63,0S121.27,128.55,105.76,119.54Z"
      />
      <path
        class="cls-8"
        d="M105.76,119.54c-15.51-9-41-9-56.63,0s-15.65,23.76,0,32.78,41.12,9,56.63,0S121.27,128.55,105.76,119.54Z"
      />
      <path
        class="cls-4"
        d="M104.84,134.9a8.49,8.49,0,0,0-7.67,0c-2.12,1.23-2.12,3.22,0,4.44a8.43,8.43,0,0,0,7.67,0C106.94,138.12,106.94,136.13,104.84,134.9Z"
      />
      <path
        class="cls-4"
        d="M104.84,134.9a8.49,8.49,0,0,0-7.67,0c-2.12,1.23-2.12,3.22,0,4.44a8.43,8.43,0,0,0,7.67,0C106.94,138.12,106.94,136.13,104.84,134.9Z"
      />
      <path
        class="cls-4"
        d="M88.45,122.15a3.85,3.85,0,0,0-3.47,0,1.06,1.06,0,0,0,0,2,3.79,3.79,0,0,0,3.47,0A1.06,1.06,0,0,0,88.45,122.15Z"
      />
      <path
        class="cls-4"
        d="M88.45,122.15a3.85,3.85,0,0,0-3.47,0,1.06,1.06,0,0,0,0,2,3.79,3.79,0,0,0,3.47,0A1.06,1.06,0,0,0,88.45,122.15Z"
      />
      <path
        class="cls-4"
        d="M69.84,147.74a11.25,11.25,0,0,0-10.14,0c-2.8,1.62-2.8,4.26,0,5.87a11.25,11.25,0,0,0,10.14,0C72.61,152,72.61,149.36,69.84,147.74Z"
      />
      <path
        class="cls-4"
        d="M69.84,147.74a11.25,11.25,0,0,0-10.14,0c-2.8,1.62-2.8,4.26,0,5.87a11.25,11.25,0,0,0,10.14,0C72.61,152,72.61,149.36,69.84,147.74Z"
      />
      <path
        class="cls-5"
        d="M76.62,138a8.52,8.52,0,0,0-7.68,0c-2.12,1.22-2.12,3.22,0,4.44a8.52,8.52,0,0,0,7.68,0C78.72,141.26,78.72,139.26,76.62,138Z"
      />
      <path
        class="cls-5"
        d="M76.62,138a8.52,8.52,0,0,0-7.68,0c-2.12,1.22-2.12,3.22,0,4.44a8.52,8.52,0,0,0,7.68,0C78.72,141.26,78.72,139.26,76.62,138Z"
      />
      <path
        class="cls-5"
        d="M51.25,139.77a10,10,0,0,0-9,0c-2.49,1.44-2.49,3.79,0,5.22a10,10,0,0,0,9,0C53.72,143.56,53.72,141.21,51.25,139.77Z"
      />
      <path
        class="cls-5"
        d="M51.25,139.77a10,10,0,0,0-9,0c-2.49,1.44-2.49,3.79,0,5.22a10,10,0,0,0,9,0C53.72,143.56,53.72,141.21,51.25,139.77Z"
      />
      <path
        class="cls-5"
        d="M74.31,119.65a12.43,12.43,0,0,0-11.24,0c-3.11,1.79-3.11,4.72,0,6.51a12.43,12.43,0,0,0,11.24,0C77.39,124.37,77.39,121.44,74.31,119.65Z"
      />
      <path
        class="cls-5"
        d="M74.31,119.65a12.43,12.43,0,0,0-11.24,0c-3.11,1.79-3.11,4.72,0,6.51a12.43,12.43,0,0,0,11.24,0C77.39,124.37,77.39,121.44,74.31,119.65Z"
      />
      <path
        class="cls-6"
        d="M92,129a10,10,0,0,0-9,0c-2.49,1.44-2.49,3.79,0,5.22a10,10,0,0,0,9,0C94.49,132.83,94.49,130.48,92,129Z"
      />
      <path
        class="cls-6"
        d="M92,129a10,10,0,0,0-9,0c-2.49,1.44-2.49,3.79,0,5.22a10,10,0,0,0,9,0C94.49,132.83,94.49,130.48,92,129Z"
      />
      <path
        class="cls-6"
        d="M89.77,145.53a13.73,13.73,0,0,0-12.36,0c-3.41,2-3.41,5.19,0,7.15a13.66,13.66,0,0,0,12.36,0C93.15,150.72,93.15,147.5,89.77,145.53Z"
      />
      <path
        class="cls-6"
        d="M89.77,145.53a13.73,13.73,0,0,0-12.36,0c-3.41,2-3.41,5.19,0,7.15a13.66,13.66,0,0,0,12.36,0C93.15,150.72,93.15,147.5,89.77,145.53Z"
      />
      <path
        class="cls-6"
        d="M57.77,125.27a16,16,0,0,0-14.43,0c-4,2.29-4,6,0,8.35a16,16,0,0,0,14.43,0C61.73,131.32,61.73,127.56,57.77,125.27Z"
      />
      <path
        class="cls-6"
        d="M57.77,125.27a16,16,0,0,0-14.43,0c-4,2.29-4,6,0,8.35a16,16,0,0,0,14.43,0C61.73,131.32,61.73,127.56,57.77,125.27Z"
      />
      <path
        class="cls-9"
        d="M50,58.88c4.53-2.63,11.45-.68,16.58-2.69,4.9-1.91,8.59-8.06,13.9-9.41,5.13-1.3,11.34,2.31,16.72,1.54s10.2-6,15.59-6.23,10.75,4.5,16.11,4.75,11.21-4,16.49-3.19,9.74,6.47,14.88,7.78c5.3,1.34,11.89-1.54,16.79.37,5.13,2,8,8.58,12.49,11.19,3.52,2,9.37.25,12.25,2.49C205,68,204.55,74.07,207,76.8c2.71,3,8.79,3.54,10.49,6.78,1.86,3.56-1.33,8.71-.7,12.39s5.35,7.68,4.68,11.5-6.33,5.82-8.19,9.38c-1.7,3.23,0,9.08-2.72,12.13-2.42,2.72-8.47,1.9-11.69,4.41-2.88,2.25-3.43,8.32-7,10.36-4.53,2.61-11.45.64-16.58,2.64-4.91,1.91-8.6,8.06-13.9,9.41-5.13,1.3-11.35-2.31-16.73-1.53s-10.19,6-15.58,6.25S118.32,156,113,155.79s-11.22,4-16.49,3.21-9.75-6.46-14.88-7.77c-5.31-1.35-11.9,1.54-16.8-.38-5.13-2-7.94-8.59-12.46-11.22-3.5-2-9.35-.27-12.21-2.52-3.19-2.52-2.74-8.59-5.13-11.31-2.68-3.06-8.75-3.57-10.43-6.8-1.84-3.56,1.38-8.69.75-12.36S20,99,20.64,95.17,27,89.36,28.79,85.8c1.68-3.23,0-9.06,2.64-12.11,2.4-2.73,8.44-1.93,11.64-4.45C45.93,67,46.45,60.91,50,58.88Z"
      />
      <path
        class="cls-9"
        d="M50,58.88c4.53-2.63,11.45-.68,16.58-2.69,4.9-1.91,8.59-8.06,13.9-9.41,5.13-1.3,11.34,2.31,16.72,1.54s10.2-6,15.59-6.23,10.75,4.5,16.11,4.75,11.21-4,16.49-3.19,9.74,6.47,14.88,7.78c5.3,1.34,11.89-1.54,16.79.37,5.13,2,8,8.58,12.49,11.19,3.52,2,9.37.25,12.25,2.49C205,68,204.55,74.07,207,76.8c2.71,3,8.79,3.54,10.49,6.78,1.86,3.56-1.33,8.71-.7,12.39s5.35,7.68,4.68,11.5-6.33,5.82-8.19,9.38c-1.7,3.23,0,9.08-2.72,12.13-2.42,2.72-8.47,1.9-11.69,4.41-2.88,2.25-3.43,8.32-7,10.36-4.53,2.61-11.45.64-16.58,2.64-4.91,1.91-8.6,8.06-13.9,9.41-5.13,1.3-11.35-2.31-16.73-1.53s-10.19,6-15.58,6.25S118.32,156,113,155.79s-11.22,4-16.49,3.21-9.75-6.46-14.88-7.77c-5.31-1.35-11.9,1.54-16.8-.38-5.13-2-7.94-8.59-12.46-11.22-3.5-2-9.35-.27-12.21-2.52-3.19-2.52-2.74-8.59-5.13-11.31-2.68-3.06-8.75-3.57-10.43-6.8-1.84-3.56,1.38-8.69.75-12.36S20,99,20.64,95.17,27,89.36,28.79,85.8c1.68-3.23,0-9.06,2.64-12.11,2.4-2.73,8.44-1.93,11.64-4.45C45.93,67,46.45,60.91,50,58.88Z"
      />
      <path
        class="cls-10"
        d="M50,58.88c4.53-2.63,11.45-.68,16.58-2.69,4.9-1.91,8.59-8.06,13.9-9.41,5.13-1.3,11.34,2.31,16.72,1.54s10.2-6,15.59-6.23,10.75,4.5,16.11,4.75,11.21-4,16.49-3.19,9.74,6.47,14.88,7.78c5.3,1.34,11.89-1.54,16.79.37,5.13,2,8,8.58,12.49,11.19,3.52,2,9.37.25,12.25,2.49C205,68,204.55,74.07,207,76.8c2.71,3,8.79,3.54,10.49,6.78,1.86,3.56-1.33,8.71-.7,12.39s5.35,7.68,4.68,11.5-6.33,5.82-8.19,9.38c-1.7,3.23,0,9.08-2.72,12.13-2.42,2.72-8.47,1.9-11.69,4.41-2.88,2.25-3.43,8.32-7,10.36-4.53,2.61-11.45.64-16.58,2.64-4.91,1.91-8.6,8.06-13.9,9.41-5.13,1.3-11.35-2.31-16.73-1.53s-10.19,6-15.58,6.25S118.32,156,113,155.79s-11.22,4-16.49,3.21-9.75-6.46-14.88-7.77c-5.31-1.35-11.9,1.54-16.8-.38-5.13-2-7.94-8.59-12.46-11.22-3.5-2-9.35-.27-12.21-2.52-3.19-2.52-2.74-8.59-5.13-11.31-2.68-3.06-8.75-3.57-10.43-6.8-1.84-3.56,1.38-8.69.75-12.36S20,99,20.64,95.17,27,89.36,28.79,85.8c1.68-3.23,0-9.06,2.64-12.11,2.4-2.73,8.44-1.93,11.64-4.45C45.93,67,46.45,60.91,50,58.88Z"
      />
      <polygon
        class="cls-11"
        points="120.19 33.04 240.39 102.31 120.19 171.58 1.01 102.31 120.19 33.04"
      />
      <polygon
        class="cls-1"
        points="120.89 0.58 238.89 68.58 120.89 136.58 3.89 68.58 120.89 0.58"
      />
      <polygon
        class="cls-1"
        points="3.89 68.58 3.89 91.58 121.89 159.58 120.89 136.58 3.89 68.58"
      />
      <polygon
        class="cls-1"
        points="238.89 68.58 238.89 91.58 121.89 159.58 120.89 136.58 238.89 68.58"
      />
      <path
        class="cls-12"
        d="M42.83,62.6c4.59-2.66,12.13-2.66,16.75,0s4.63,7,0,9.7S47.42,75,42.83,72.3,38.25,65.27,42.83,62.6Z"
      />
      <path
        class="cls-12"
        d="M42.83,62.6c4.59-2.66,12.13-2.66,16.75,0s4.63,7,0,9.7S47.42,75,42.83,72.3,38.25,65.27,42.83,62.6Z"
      />
      <path
        class="cls-12"
        d="M86.61,30.77a8.37,8.37,0,0,1,7.58,0c2.1,1.21,2.1,3.18,0,4.39a8.37,8.37,0,0,1-7.58,0C84.53,34,84.53,32,86.61,30.77Z"
      />
      <path
        class="cls-12"
        d="M86.61,30.77a8.37,8.37,0,0,1,7.58,0c2.1,1.21,2.1,3.18,0,4.39a8.37,8.37,0,0,1-7.58,0C84.53,34,84.53,32,86.61,30.77Z"
      />
      <path
        class="cls-12"
        d="M116.35,102.69c5.46-3.48,14.42-3.48,19.92,0s5.5,9.2,0,12.68-14.46,3.49-19.92,0S110.9,106.18,116.35,102.69Z"
      />
      <path
        class="cls-12"
        d="M116.35,102.69c5.46-3.48,14.42-3.48,19.92,0s5.5,9.2,0,12.68-14.46,3.49-19.92,0S110.9,106.18,116.35,102.69Z"
      />
      <path
        class="cls-12"
        d="M99.45,50.45c4.58-2.67,12.12-2.67,16.75,0s4.62,7,0,9.69-12.17,2.67-16.75,0S94.86,53.12,99.45,50.45Z"
      />
      <path
        class="cls-12"
        d="M99.45,50.45c4.58-2.67,12.12-2.67,16.75,0s4.62,7,0,9.69-12.17,2.67-16.75,0S94.86,53.12,99.45,50.45Z"
      />
      <path
        class="cls-12"
        d="M143.82,77.23c5.4-3.14,14.27-3.14,19.71,0s5.44,8.26,0,11.4-14.31,3.14-19.71,0S138.43,80.36,143.82,77.23Z"
      />
      <path
        class="cls-12"
        d="M143.82,77.23c5.4-3.14,14.27-3.14,19.71,0s5.44,8.26,0,11.4-14.31,3.14-19.71,0S138.43,80.36,143.82,77.23Z"
      />
      <path
        class="cls-12"
        d="M114.47,18.31c6.73-3.91,17.77-3.91,24.55,0s6.79,10.3,0,14.2-17.82,3.91-24.55,0S107.75,22.21,114.47,18.31Z"
      />
      <path
        class="cls-12"
        d="M114.47,18.31c6.73-3.91,17.77-3.91,24.55,0s6.79,10.3,0,14.2-17.82,3.91-24.55,0S107.75,22.21,114.47,18.31Z"
      />
      <path
        class="cls-12"
        d="M83,77.69c5.08-3,13.42-3,18.54,0s5.12,7.78,0,10.73-13.46,3-18.54,0S77.93,80.64,83,77.69Z"
      />
      <path
        class="cls-12"
        d="M83,77.69c5.08-3,13.42-3,18.54,0s5.12,7.78,0,10.73-13.46,3-18.54,0S77.93,80.64,83,77.69Z"
      />
      <path
        class="cls-12"
        d="M155,62.17a10.1,10.1,0,0,1,9.15,0c2.53,1.46,2.53,3.84,0,5.3a10.17,10.17,0,0,1-9.15,0C152.48,66,152.48,63.63,155,62.17Z"
      />
      <path
        class="cls-12"
        d="M155,62.17a10.1,10.1,0,0,1,9.15,0c2.53,1.46,2.53,3.84,0,5.3a10.17,10.17,0,0,1-9.15,0C152.48,66,152.48,63.63,155,62.17Z"
      />
      <path
        class="cls-12"
        d="M146,44.17a10.1,10.1,0,0,1,9.15,0c2.53,1.46,2.53,3.84,0,5.3a10.17,10.17,0,0,1-9.15,0C143.48,48,143.48,45.63,146,44.17Z"
      />
      <path
        class="cls-12"
        d="M146,44.17a10.1,10.1,0,0,1,9.15,0c2.53,1.46,2.53,3.84,0,5.3a10.17,10.17,0,0,1-9.15,0C143.48,48,143.48,45.63,146,44.17Z"
      />
      <path
        class="cls-12"
        d="M194.77,63.52a14.32,14.32,0,0,1,12.94,0c3.58,2.06,3.58,5.43,0,7.49a14.32,14.32,0,0,1-12.94,0C191.22,69,191.22,65.58,194.77,63.52Z"
      />
      <path
        class="cls-12"
        d="M194.77,63.52a14.32,14.32,0,0,1,12.94,0c3.58,2.06,3.58,5.43,0,7.49a14.32,14.32,0,0,1-12.94,0C191.22,69,191.22,65.58,194.77,63.52Z"
      />
      <polygon
        class="cls-1"
        points="506.89 323.58 624.89 391.58 506.89 459.58 389.89 391.58 506.89 323.58"
      />
      <polygon
        class="cls-1"
        points="389.89 391.58 389.89 414.58 507.89 482.58 506.89 459.58 389.89 391.58"
      />
      <polygon
        class="cls-1"
        points="624.89 391.58 624.89 414.58 507.89 482.58 506.89 459.58 624.89 391.58"
      />
      <polygon
        class="cls-1"
        points="506.89 323.58 624.89 391.58 506.89 459.58 389.89 391.58 506.89 323.58"
      />
      <path
        class="cls-2"
        d="M514.5,395.5c16.31-9.48,43.11-9.48,59.56,0s16.45,25,0,34.47-43.25,9.48-59.56,0S498.19,405,514.5,395.5Z"
      />
      <path
        class="cls-3"
        d="M514.5,395.5c16.31-9.48,43.11-9.48,59.56,0s16.45,25,0,34.47-43.25,9.48-59.56,0S498.19,405,514.5,395.5Z"
      />
      <path
        class="cls-4"
        d="M515.46,411.66a8.9,8.9,0,0,1,8.07,0c2.23,1.28,2.23,3.38,0,4.67a9,9,0,0,1-8.07,0C513.25,415,513.25,412.94,515.46,411.66Z"
      />
      <path
        class="cls-4"
        d="M515.46,411.66a8.9,8.9,0,0,1,8.07,0c2.23,1.28,2.23,3.38,0,4.67a9,9,0,0,1-8.07,0C513.25,415,513.25,412.94,515.46,411.66Z"
      />
      <path
        class="cls-4"
        d="M532.7,398.25a4,4,0,0,1,3.65,0,1.11,1.11,0,0,1,0,2.11,4,4,0,0,1-3.65,0A1.12,1.12,0,0,1,532.7,398.25Z"
      />
      <path
        class="cls-4"
        d="M532.7,398.25a4,4,0,0,1,3.65,0,1.11,1.11,0,0,1,0,2.11,4,4,0,0,1-3.65,0A1.12,1.12,0,0,1,532.7,398.25Z"
      />
      <path
        class="cls-4"
        d="M552.28,425.16a11.78,11.78,0,0,1,10.66,0c2.94,1.69,2.94,4.47,0,6.17a11.84,11.84,0,0,1-10.66,0C549.36,429.63,549.36,426.85,552.28,425.16Z"
      />
      <path
        class="cls-4"
        d="M552.28,425.16a11.78,11.78,0,0,1,10.66,0c2.94,1.69,2.94,4.47,0,6.17a11.84,11.84,0,0,1-10.66,0C549.36,429.63,549.36,426.85,552.28,425.16Z"
      />
      <path
        class="cls-5"
        d="M545.15,415a9,9,0,0,1,8.07,0c2.22,1.29,2.22,3.39,0,4.67a8.9,8.9,0,0,1-8.07,0C542.94,418.34,542.94,416.24,545.15,415Z"
      />
      <path
        class="cls-5"
        d="M545.15,415a9,9,0,0,1,8.07,0c2.22,1.29,2.22,3.39,0,4.67a8.9,8.9,0,0,1-8.07,0C542.94,418.34,542.94,416.24,545.15,415Z"
      />
      <path
        class="cls-5"
        d="M571.82,416.77a10.53,10.53,0,0,1,9.5,0c2.62,1.51,2.62,4,0,5.5a10.53,10.53,0,0,1-9.5,0C569.22,420.76,569.22,418.28,571.82,416.77Z"
      />
      <path
        class="cls-5"
        d="M571.82,416.77a10.53,10.53,0,0,1,9.5,0c2.62,1.51,2.62,4,0,5.5a10.53,10.53,0,0,1-9.5,0C569.22,420.76,569.22,418.28,571.82,416.77Z"
      />
      <path
        class="cls-5"
        d="M547.57,395.61a13.11,13.11,0,0,1,11.83,0c3.26,1.89,3.26,5,0,6.85a13.11,13.11,0,0,1-11.83,0C544.33,400.58,544.33,397.5,547.57,395.61Z"
      />
      <path
        class="cls-5"
        d="M547.57,395.61a13.11,13.11,0,0,1,11.83,0c3.26,1.89,3.26,5,0,6.85a13.11,13.11,0,0,1-11.83,0C544.33,400.58,544.33,397.5,547.57,395.61Z"
      />
      <path
        class="cls-6"
        d="M529,405.49a10.51,10.51,0,0,1,9.49,0c2.62,1.51,2.62,4,0,5.49a10.51,10.51,0,0,1-9.49,0C526.35,409.47,526.35,407,529,405.49Z"
      />
      <path
        class="cls-6"
        d="M529,405.49a10.51,10.51,0,0,1,9.49,0c2.62,1.51,2.62,4,0,5.49a10.51,10.51,0,0,1-9.49,0C526.35,409.47,526.35,407,529,405.49Z"
      />
      <path
        class="cls-6"
        d="M531.32,422.83a14.36,14.36,0,0,1,13,0c3.59,2.07,3.59,5.46,0,7.52a14.36,14.36,0,0,1-13,0C527.76,428.29,527.76,424.9,531.32,422.83Z"
      />
      <path
        class="cls-6"
        d="M531.32,422.83a14.36,14.36,0,0,1,13,0c3.59,2.07,3.59,5.46,0,7.52a14.36,14.36,0,0,1-13,0C527.76,428.29,527.76,424.9,531.32,422.83Z"
      />
      <path
        class="cls-6"
        d="M565,401.52c4.16-2.41,11-2.41,15.18,0s4.19,6.37,0,8.78-11,2.42-15.18,0S560.81,403.94,565,401.52Z"
      />
      <path
        class="cls-6"
        d="M565,401.52c4.16-2.41,11-2.41,15.18,0s4.19,6.37,0,8.78-11,2.42-15.18,0S560.81,403.94,565,401.52Z"
      />
      <path
        class="cls-7"
        d="M490.76,396.54c-15.51-9-41-9-56.63,0s-15.65,23.76,0,32.78,41.12,9,56.63,0S506.27,405.55,490.76,396.54Z"
      />
      <path
        class="cls-8"
        d="M490.76,396.54c-15.51-9-41-9-56.63,0s-15.65,23.76,0,32.78,41.12,9,56.63,0S506.27,405.55,490.76,396.54Z"
      />
      <path
        class="cls-4"
        d="M489.84,411.9a8.49,8.49,0,0,0-7.67,0c-2.12,1.23-2.12,3.22,0,4.44a8.43,8.43,0,0,0,7.67,0C491.94,415.12,491.94,413.13,489.84,411.9Z"
      />
      <path
        class="cls-4"
        d="M489.84,411.9a8.49,8.49,0,0,0-7.67,0c-2.12,1.23-2.12,3.22,0,4.44a8.43,8.43,0,0,0,7.67,0C491.94,415.12,491.94,413.13,489.84,411.9Z"
      />
      <path
        class="cls-4"
        d="M473.45,399.15a3.85,3.85,0,0,0-3.47,0,1.06,1.06,0,0,0,0,2,3.79,3.79,0,0,0,3.47,0A1.06,1.06,0,0,0,473.45,399.15Z"
      />
      <path
        class="cls-4"
        d="M473.45,399.15a3.85,3.85,0,0,0-3.47,0,1.06,1.06,0,0,0,0,2,3.79,3.79,0,0,0,3.47,0A1.06,1.06,0,0,0,473.45,399.15Z"
      />
      <path
        class="cls-4"
        d="M454.84,424.74a11.25,11.25,0,0,0-10.14,0c-2.8,1.62-2.8,4.26,0,5.87a11.25,11.25,0,0,0,10.14,0C457.61,429,457.61,426.36,454.84,424.74Z"
      />
      <path
        class="cls-4"
        d="M454.84,424.74a11.25,11.25,0,0,0-10.14,0c-2.8,1.62-2.8,4.26,0,5.87a11.25,11.25,0,0,0,10.14,0C457.61,429,457.61,426.36,454.84,424.74Z"
      />
      <path
        class="cls-5"
        d="M461.62,415a8.52,8.52,0,0,0-7.68,0c-2.12,1.22-2.12,3.22,0,4.44a8.52,8.52,0,0,0,7.68,0C463.72,418.26,463.72,416.26,461.62,415Z"
      />
      <path
        class="cls-5"
        d="M461.62,415a8.52,8.52,0,0,0-7.68,0c-2.12,1.22-2.12,3.22,0,4.44a8.52,8.52,0,0,0,7.68,0C463.72,418.26,463.72,416.26,461.62,415Z"
      />
      <path
        class="cls-5"
        d="M436.25,416.77a10,10,0,0,0-9,0c-2.49,1.44-2.49,3.79,0,5.22a10,10,0,0,0,9,0C438.72,420.56,438.72,418.21,436.25,416.77Z"
      />
      <path
        class="cls-5"
        d="M436.25,416.77a10,10,0,0,0-9,0c-2.49,1.44-2.49,3.79,0,5.22a10,10,0,0,0,9,0C438.72,420.56,438.72,418.21,436.25,416.77Z"
      />
      <path
        class="cls-5"
        d="M459.31,396.65a12.43,12.43,0,0,0-11.24,0c-3.11,1.79-3.11,4.72,0,6.51a12.43,12.43,0,0,0,11.24,0C462.39,401.37,462.39,398.44,459.31,396.65Z"
      />
      <path
        class="cls-5"
        d="M459.31,396.65a12.43,12.43,0,0,0-11.24,0c-3.11,1.79-3.11,4.72,0,6.51a12.43,12.43,0,0,0,11.24,0C462.39,401.37,462.39,398.44,459.31,396.65Z"
      />
      <path
        class="cls-6"
        d="M477,406a10,10,0,0,0-9,0c-2.49,1.44-2.49,3.79,0,5.22a10,10,0,0,0,9,0C479.49,409.83,479.49,407.48,477,406Z"
      />
      <path
        class="cls-6"
        d="M477,406a10,10,0,0,0-9,0c-2.49,1.44-2.49,3.79,0,5.22a10,10,0,0,0,9,0C479.49,409.83,479.49,407.48,477,406Z"
      />
      <path
        class="cls-6"
        d="M474.77,422.53a13.73,13.73,0,0,0-12.36,0c-3.41,2-3.41,5.19,0,7.15a13.66,13.66,0,0,0,12.36,0C478.15,427.72,478.15,424.5,474.77,422.53Z"
      />
      <path
        class="cls-6"
        d="M474.77,422.53a13.73,13.73,0,0,0-12.36,0c-3.41,2-3.41,5.19,0,7.15a13.66,13.66,0,0,0,12.36,0C478.15,427.72,478.15,424.5,474.77,422.53Z"
      />
      <path
        class="cls-6"
        d="M442.77,402.27a16,16,0,0,0-14.43,0c-4,2.29-4,6.05,0,8.35a16,16,0,0,0,14.43,0C446.73,408.32,446.73,404.56,442.77,402.27Z"
      />
      <path
        class="cls-6"
        d="M442.77,402.27a16,16,0,0,0-14.43,0c-4,2.29-4,6.05,0,8.35a16,16,0,0,0,14.43,0C446.73,408.32,446.73,404.56,442.77,402.27Z"
      />
      <path
        class="cls-9"
        d="M435,335.88c4.53-2.63,11.45-.68,16.58-2.69,4.9-1.91,8.59-8.06,13.9-9.41,5.13-1.3,11.34,2.31,16.72,1.54s10.2-6,15.59-6.23,10.75,4.5,16.11,4.75,11.21-4,16.49-3.19,9.74,6.47,14.88,7.78c5.3,1.34,11.89-1.54,16.79.37,5.13,2,8,8.58,12.49,11.19,3.52,2,9.37.25,12.25,2.49,3.22,2.51,2.8,8.59,5.21,11.32,2.71,3.05,8.79,3.54,10.49,6.78,1.86,3.56-1.33,8.71-.7,12.39s5.35,7.68,4.68,11.5-6.33,5.82-8.19,9.38c-1.7,3.23,0,9.08-2.72,12.13-2.42,2.72-8.47,1.9-11.69,4.41-2.88,2.25-3.43,8.32-7,10.36-4.53,2.61-11.45.64-16.58,2.64-4.91,1.91-8.6,8.06-13.9,9.41-5.13,1.3-11.35-2.31-16.73-1.53s-10.19,6-15.58,6.25S503.32,433,498,432.79s-11.22,4-16.49,3.21-9.75-6.46-14.88-7.77c-5.31-1.35-11.9,1.54-16.8-.38-5.13-2-7.94-8.59-12.46-11.22-3.5-2-9.35-.27-12.21-2.52-3.19-2.52-2.74-8.59-5.13-11.31-2.68-3.06-8.75-3.57-10.43-6.8-1.84-3.56,1.38-8.69.75-12.36S405,376,405.64,372.17s6.31-5.81,8.15-9.37c1.68-3.23,0-9.06,2.64-12.11,2.4-2.73,8.44-1.93,11.64-4.45C430.93,344,431.45,337.91,435,335.88Z"
      />
      <path
        class="cls-9"
        d="M435,335.88c4.53-2.63,11.45-.68,16.58-2.69,4.9-1.91,8.59-8.06,13.9-9.41,5.13-1.3,11.34,2.31,16.72,1.54s10.2-6,15.59-6.23,10.75,4.5,16.11,4.75,11.21-4,16.49-3.19,9.74,6.47,14.88,7.78c5.3,1.34,11.89-1.54,16.79.37,5.13,2,8,8.58,12.49,11.19,3.52,2,9.37.25,12.25,2.49,3.22,2.51,2.8,8.59,5.21,11.32,2.71,3.05,8.79,3.54,10.49,6.78,1.86,3.56-1.33,8.71-.7,12.39s5.35,7.68,4.68,11.5-6.33,5.82-8.19,9.38c-1.7,3.23,0,9.08-2.72,12.13-2.42,2.72-8.47,1.9-11.69,4.41-2.88,2.25-3.43,8.32-7,10.36-4.53,2.61-11.45.64-16.58,2.64-4.91,1.91-8.6,8.06-13.9,9.41-5.13,1.3-11.35-2.31-16.73-1.53s-10.19,6-15.58,6.25S503.32,433,498,432.79s-11.22,4-16.49,3.21-9.75-6.46-14.88-7.77c-5.31-1.35-11.9,1.54-16.8-.38-5.13-2-7.94-8.59-12.46-11.22-3.5-2-9.35-.27-12.21-2.52-3.19-2.52-2.74-8.59-5.13-11.31-2.68-3.06-8.75-3.57-10.43-6.8-1.84-3.56,1.38-8.69.75-12.36S405,376,405.64,372.17s6.31-5.81,8.15-9.37c1.68-3.23,0-9.06,2.64-12.11,2.4-2.73,8.44-1.93,11.64-4.45C430.93,344,431.45,337.91,435,335.88Z"
      />
      <path
        class="cls-10"
        d="M435,335.88c4.53-2.63,11.45-.68,16.58-2.69,4.9-1.91,8.59-8.06,13.9-9.41,5.13-1.3,11.34,2.31,16.72,1.54s10.2-6,15.59-6.23,10.75,4.5,16.11,4.75,11.21-4,16.49-3.19,9.74,6.47,14.88,7.78c5.3,1.34,11.89-1.54,16.79.37,5.13,2,8,8.58,12.49,11.19,3.52,2,9.37.25,12.25,2.49,3.22,2.51,2.8,8.59,5.21,11.32,2.71,3.05,8.79,3.54,10.49,6.78,1.86,3.56-1.33,8.71-.7,12.39s5.35,7.68,4.68,11.5-6.33,5.82-8.19,9.38c-1.7,3.23,0,9.08-2.72,12.13-2.42,2.72-8.47,1.9-11.69,4.41-2.88,2.25-3.43,8.32-7,10.36-4.53,2.61-11.45.64-16.58,2.64-4.91,1.91-8.6,8.06-13.9,9.41-5.13,1.3-11.35-2.31-16.73-1.53s-10.19,6-15.58,6.25S503.32,433,498,432.79s-11.22,4-16.49,3.21-9.75-6.46-14.88-7.77c-5.31-1.35-11.9,1.54-16.8-.38-5.13-2-7.94-8.59-12.46-11.22-3.5-2-9.35-.27-12.21-2.52-3.19-2.52-2.74-8.59-5.13-11.31-2.68-3.06-8.75-3.57-10.43-6.8-1.84-3.56,1.38-8.69.75-12.36S405,376,405.64,372.17s6.31-5.81,8.15-9.37c1.68-3.23,0-9.06,2.64-12.11,2.4-2.73,8.44-1.93,11.64-4.45C430.93,344,431.45,337.91,435,335.88Z"
      />
      <polygon
        class="cls-11"
        points="505.19 310.04 625.39 379.31 505.19 448.58 386.01 379.31 505.19 310.04"
      />
      <polygon
        class="cls-1"
        points="505.89 277.58 623.89 345.58 505.89 413.58 388.89 345.58 505.89 277.58"
      />
      <polygon
        class="cls-1"
        points="388.89 345.58 388.89 368.58 506.89 436.58 505.89 413.58 388.89 345.58"
      />
      <polygon
        class="cls-1"
        points="623.89 345.58 623.89 368.58 506.89 436.58 505.89 413.58 623.89 345.58"
      />
      <path
        class="cls-12"
        d="M427.83,339.6c4.59-2.66,12.13-2.66,16.75,0s4.63,7,0,9.7-12.16,2.66-16.75,0S423.25,342.27,427.83,339.6Z"
      />
      <path
        class="cls-12"
        d="M427.83,339.6c4.59-2.66,12.13-2.66,16.75,0s4.63,7,0,9.7-12.16,2.66-16.75,0S423.25,342.27,427.83,339.6Z"
      />
      <path
        class="cls-12"
        d="M471.61,307.77a8.37,8.37,0,0,1,7.58,0c2.1,1.21,2.1,3.18,0,4.39a8.37,8.37,0,0,1-7.58,0C469.53,311,469.53,309,471.61,307.77Z"
      />
      <path
        class="cls-12"
        d="M471.61,307.77a8.37,8.37,0,0,1,7.58,0c2.1,1.21,2.1,3.18,0,4.39a8.37,8.37,0,0,1-7.58,0C469.53,311,469.53,309,471.61,307.77Z"
      />
      <path
        class="cls-12"
        d="M501.35,379.69c5.46-3.48,14.42-3.48,19.92,0s5.5,9.2,0,12.68-14.46,3.49-19.92,0S495.9,383.18,501.35,379.69Z"
      />
      <path
        class="cls-12"
        d="M501.35,379.69c5.46-3.48,14.42-3.48,19.92,0s5.5,9.2,0,12.68-14.46,3.49-19.92,0S495.9,383.18,501.35,379.69Z"
      />
      <path
        class="cls-12"
        d="M484.45,327.45c4.58-2.67,12.12-2.67,16.75,0s4.62,7,0,9.69-12.17,2.67-16.75,0S479.86,330.12,484.45,327.45Z"
      />
      <path
        class="cls-12"
        d="M484.45,327.45c4.58-2.67,12.12-2.67,16.75,0s4.62,7,0,9.69-12.17,2.67-16.75,0S479.86,330.12,484.45,327.45Z"
      />
      <path
        class="cls-12"
        d="M528.82,354.23c5.4-3.14,14.27-3.14,19.71,0s5.44,8.26,0,11.4-14.31,3.14-19.71,0S523.43,357.36,528.82,354.23Z"
      />
      <path
        class="cls-12"
        d="M528.82,354.23c5.4-3.14,14.27-3.14,19.71,0s5.44,8.26,0,11.4-14.31,3.14-19.71,0S523.43,357.36,528.82,354.23Z"
      />
      <path
        class="cls-12"
        d="M499.47,295.31c6.73-3.91,17.77-3.91,24.55,0s6.79,10.3,0,14.2-17.82,3.91-24.55,0S492.75,299.21,499.47,295.31Z"
      />
      <path
        class="cls-12"
        d="M499.47,295.31c6.73-3.91,17.77-3.91,24.55,0s6.79,10.3,0,14.2-17.82,3.91-24.55,0S492.75,299.21,499.47,295.31Z"
      />
      <path
        class="cls-12"
        d="M468,354.69c5.08-2.95,13.42-2.95,18.54,0s5.12,7.78,0,10.73-13.46,2.95-18.54,0S462.93,357.64,468,354.69Z"
      />
      <path
        class="cls-12"
        d="M468,354.69c5.08-2.95,13.42-2.95,18.54,0s5.12,7.78,0,10.73-13.46,2.95-18.54,0S462.93,357.64,468,354.69Z"
      />
      <path
        class="cls-12"
        d="M540,339.17a10.1,10.1,0,0,1,9.15,0c2.53,1.46,2.53,3.84,0,5.3a10.17,10.17,0,0,1-9.15,0C537.48,343,537.48,340.63,540,339.17Z"
      />
      <path
        class="cls-12"
        d="M540,339.17a10.1,10.1,0,0,1,9.15,0c2.53,1.46,2.53,3.84,0,5.3a10.17,10.17,0,0,1-9.15,0C537.48,343,537.48,340.63,540,339.17Z"
      />
      <path
        class="cls-12"
        d="M531,321.17a10.1,10.1,0,0,1,9.15,0c2.53,1.46,2.53,3.84,0,5.3a10.17,10.17,0,0,1-9.15,0C528.48,325,528.48,322.63,531,321.17Z"
      />
      <path
        class="cls-12"
        d="M531,321.17a10.1,10.1,0,0,1,9.15,0c2.53,1.46,2.53,3.84,0,5.3a10.17,10.17,0,0,1-9.15,0C528.48,325,528.48,322.63,531,321.17Z"
      />
      <path
        class="cls-12"
        d="M579.77,340.52a14.32,14.32,0,0,1,12.94,0c3.58,2.06,3.58,5.43,0,7.49a14.32,14.32,0,0,1-12.94,0C576.22,346,576.22,342.58,579.77,340.52Z"
      />
      <path
        class="cls-12"
        d="M579.77,340.52a14.32,14.32,0,0,1,12.94,0c3.58,2.06,3.58,5.43,0,7.49a14.32,14.32,0,0,1-12.94,0C576.22,346,576.22,342.58,579.77,340.52Z"
      />
    </g>
  </g>
</svg>
